<svg xmlns="http://www.w3.org/2000/svg" viewBox="0 0 1280 320" width="1280" height="320">
  <defs>
    <linearGradient id="bgGrad" x1="0%" y1="0%" x2="100%" y2="100%">
      <stop offset="0%" stop-color="#0d1117"/>
      <stop offset="50%" stop-color="#0f1520"/>
      <stop offset="100%" stop-color="#0d1117"/>
    </linearGradient>
    <linearGradient id="accentLine" x1="0%" y1="0%" x2="100%" y2="0%">
      <stop offset="0%" stop-color="#00d4ff" stop-opacity="0"/>
      <stop offset="50%" stop-color="#00d4ff" stop-opacity="1"/>
      <stop offset="100%" stop-color="#00d4ff" stop-opacity="0"/>
    </linearGradient>
    <linearGradient id="glowGrad" x1="0%" y1="0%" x2="100%" y2="0%">
      <stop offset="0%" stop-color="#00d4ff" stop-opacity="0"/>
      <stop offset="30%" stop-color="#00d4ff" stop-opacity="0.08"/>
      <stop offset="70%" stop-color="#00d4ff" stop-opacity="0.08"/>
      <stop offset="100%" stop-color="#00d4ff" stop-opacity="0"/>
    </linearGradient>
  </defs>
  <!-- Background -->
  <rect width="1280" height="320" fill="url(#bgGrad)"/>
  <!-- Subtle grid pattern -->
  <g stroke="#ffffff" stroke-width="0.3" opacity="0.04">
    <line x1="0" y1="80" x2="1280" y2="80"/>
    <line x1="0" y1="160" x2="1280" y2="160"/>
    <line x1="0" y1="240" x2="1280" y2="240"/>
    <line x1="320" y1="0" x2="320" y2="320"/>
    <line x1="640" y1="0" x2="640" y2="320"/>
    <line x1="960" y1="0" x2="960" y2="320"/>
  </g>
  <!-- Subtle glow behind text -->
  <rect x="340" y="60" width="600" height="120" fill="url(#glowGrad)" rx="60"/>
  <!-- Speed chevrons - left decorative -->
  <g stroke="#00d4ff" stroke-width="2" fill="none" stroke-linecap="round" stroke-linejoin="round" opacity="0.5">
    <polyline points="380,110 394,130 380,150"/>
    <polyline points="396,110 410,130 396,150"/>
  </g>
  <!-- HALO text -->
  <text x="440" y="148" font-family="Arial, Helvetica, sans-serif" font-weight="900" font-size="72" fill="#ffffff" letter-spacing="8">HALO</text>
  <!-- AI text - accent -->
  <text x="760" y="148" font-family="Arial, Helvetica, sans-serif" font-weight="900" font-size="72" fill="#00d4ff" letter-spacing="4">AI</text>
  <!-- Accent line -->
  <line x1="340" y1="172" x2="940" y2="172" stroke="url(#accentLine)" stroke-width="1"/>
  <!-- Subtitle -->
  <text x="640" y="205" font-family="Arial, Helvetica, sans-serif" font-weight="400" font-size="20" fill="#8b949e" text-anchor="middle" letter-spacing="3">BARE-METAL AI STACK FOR AMD STRIX HALO</text>
  <!-- Stats bar -->
  <g font-family="'Courier New', Courier, monospace" font-size="16" fill="#00d4ff" text-anchor="middle">
    <!-- stat separators -->
    <text x="488" y="252">89 tok/s</text>
    <text x="578" y="252" fill="#3d444d" font-size="14">|</text>
    <text x="640" y="252">115GB GPU</text>
    <text x="718" y="252" fill="#3d444d" font-size="14">|</text>
    <text x="800" y="252">zero containers</text>
  </g>
  <!-- Bottom accent dots -->
  <g fill="#00d4ff" opacity="0.3">
    <circle cx="580" cy="285" r="2"/>
    <circle cx="640" cy="285" r="2"/>
    <circle cx="700" cy="285" r="2"/>
  </g>
</svg>