<svg xmlns="http://www.w3.org/2000/svg" viewBox="0 0 128 128" width="128" height="128">
  <rect width="128" height="128" rx="20" fill="#0d1117"/>
  <!-- Watchful eye (the overseer) -->
  <path d="M24,58 Q44,32 64,32 Q84,32 104,58 Q84,84 64,84 Q44,84 24,58 Z" fill="none" stroke="#ffffff" stroke-width="2.5"/>
  <!-- Iris -->
  <circle cx="64" cy="58" r="14" fill="none" stroke="#ffffff" stroke-width="2"/>
  <!-- Pupil -->
  <circle cx="64" cy="58" r="6" fill="#ffffff"/>
  <!-- Scan lines (security sweep) -->
  <line x1="20" y1="42" x2="108" y2="42" stroke="#ffffff" stroke-width="0.5" opacity="0.2"/>
  <line x1="20" y1="50" x2="108" y2="50" stroke="#ffffff" stroke-width="0.5" opacity="0.15"/>
  <line x1="20" y1="66" x2="108" y2="66" stroke="#ffffff" stroke-width="0.5" opacity="0.15"/>
  <line x1="20" y1="74" x2="108" y2="74" stroke="#ffffff" stroke-width="0.5" opacity="0.2"/>
  <!-- 9 dots below (the gang) -->
  <g transform="translate(28,96)">
    <circle cx="0" cy="0" r="2" fill="#00ff88" opacity="0.8"/>
    <circle cx="11" cy="0" r="2" fill="#b388ff" opacity="0.8"/>
    <circle cx="22" cy="0" r="2" fill="#00d4ff" opacity="0.8"/>
    <circle cx="33" cy="0" r="2" fill="#ff9800" opacity="0.8"/>
    <circle cx="44" cy="0" r="2" fill="#ff4444" opacity="0.8"/>
    <circle cx="55" cy="0" r="2" fill="#448aff" opacity="0.8"/>
    <circle cx="66" cy="0" r="2" fill="#ffd740" opacity="0.8"/>
    <circle cx="77" cy="0" r="2" fill="#00bfa5" opacity="0.8"/>
    <circle cx="88" cy="0" r="2" fill="#78909c" opacity="0.8"/>
  </g>
  <!-- Label -->
  <text x="64" y="116" text-anchor="middle" font-family="monospace" font-size="10" fill="#ffffff" font-weight="bold">meek</text>
</svg>
